 <svg version="1.0" xmlns="http://www.w3.org/2000/svg" width="700.000000pt" height="631.000000pt" viewBox="0 0 700.000000 631.000000" preserveAspectRatio="xMidYMid meet">
<metadata>
Created by potrace 1.12, written by Peter Selinger 2001-2015
</metadata>
<g transform="translate(0.000000,631.000000) scale(0.100000,-0.100000)" fill="#fff" stroke="none">
<path d="M5593 6231 c-207 -59 -352 -203 -408 -406 -23 -86 -29 -304 -16 -611
20 -476 58 -673 191 -1009 130 -325 294 -648 578 -1135 243 -416 332 -630 378
-905 20 -122 23 -351 5 -460 -30 -187 -121 -405 -237 -566 -318 -442 -974
-798 -1644 -893 -288 -41 -626 -45 -920 -11 -205 24 -773 140 -781 160 -7 16
140 83 221 101 305 65 691 171 900 246 586 211 1024 519 1275 898 188 282 275
565 275 891 0 395 -118 716 -387 1049 -83 103 -318 330 -433 419 -371 287
-767 482 -1180 580 -164 40 -263 51 -441 51 -279 0 -412 -50 -484 -182 -25
-46 -29 -63 -29 -128 1 -125 37 -201 212 -448 52 -73 92 -135 89 -138 -2 -3
-83 -16 -178 -29 -283 -39 -705 -126 -854 -177 -287 -98 -361 -275 -207 -494
49 -69 208 -228 360 -359 44 -38 81 -73 81 -76 1 -4 -50 -28 -112 -54 -61 -27
-143 -67 -182 -90 -38 -23 -160 -95 -270 -160 -445 -262 -669 -433 -740 -565
-75 -139 -11 -281 167 -371 77 -39 310 -119 347 -119 37 0 51 17 51 60 0 48
-21 66 -89 74 -66 9 -229 60 -292 92 -85 43 -122 109 -99 181 35 110 274 329
533 489 125 78 406 213 552 265 171 61 305 153 305 210 0 19 -15 39 -53 75
-96 87 -131 116 -172 136 -176 89 -342 282 -339 394 1 45 36 114 76 150 26 24
39 27 283 79 194 41 354 72 605 115 96 17 189 34 205 39 17 5 46 12 66 15 53
9 89 46 89 93 0 42 -48 128 -112 202 -21 24 -38 48 -38 52 0 5 -23 37 -51 71
-58 71 -104 161 -114 220 -6 34 -1 51 29 113 41 83 87 128 148 147 75 23 390
16 533 -10 598 -113 1072 -420 1385 -897 297 -454 387 -1105 219 -1582 -129
-364 -386 -671 -779 -925 -349 -227 -724 -373 -1260 -492 -211 -47 -301 -60
-360 -53 -50 6 -242 86 -269 112 -24 23 -17 149 14 240 14 45 30 87 34 94 7
10 29 8 111 -13 255 -64 622 -10 910 134 314 158 604 425 710 655 53 114 100
266 169 546 34 134 66 263 72 286 11 40 20 48 123 116 251 165 436 354 436
445 0 64 -93 82 -189 37 -150 -70 -344 -288 -466 -526 -34 -67 -46 -81 -95
-110 -30 -18 -120 -74 -199 -126 -79 -51 -146 -91 -149 -88 -2 2 1 41 8 86 30
189 -23 347 -146 442 -176 135 -527 104 -851 -75 -201 -111 -429 -309 -566
-493 -82 -110 -180 -303 -206 -408 -47 -182 -50 -308 -10 -476 34 -146 116
-267 236 -346 32 -22 62 -42 66 -46 5 -4 -1 -26 -13 -49 -30 -60 -61 -187 -59
-242 2 -26 0 -50 -3 -53 -3 -3 -151 62 -330 145 -179 82 -330 150 -335 150 -6
0 -16 7 -23 15 -7 8 -19 15 -28 15 -8 0 -92 38 -186 84 l-171 84 -140 16
c-208 23 -438 37 -642 39 l-182 2 -40 -39 c-22 -21 -49 -61 -61 -88 -21 -49
-21 -50 -2 -86 32 -62 90 -99 169 -108 111 -11 335 3 468 31 253 54 279 57
365 53 114 -7 332 -79 685 -228 314 -132 482 -204 494 -214 14 -11 10 -81 -6
-96 -9 -9 -245 33 -316 56 -27 9 -108 45 -181 79 -340 161 -498 208 -716 208
-132 1 -200 -13 -251 -51 -143 -106 -149 -112 -149 -143 0 -50 27 -87 101
-135 73 -49 112 -61 274 -89 203 -34 332 -47 565 -55 311 -11 356 -23 460
-115 83 -73 107 -56 66 45 -14 35 -26 69 -26 75 0 13 147 25 317 25 86 0 115
-4 176 -26 604 -218 1164 -307 1727 -274 803 46 1479 264 1949 627 105 81 273
243 350 338 362 443 408 943 138 1482 -113 223 -221 386 -554 831 -325 433
-429 593 -553 847 -254 523 -348 1097 -245 1500 32 126 64 190 127 252 108
105 217 150 291 119 86 -36 217 -195 258 -314 11 -31 36 -136 55 -232 21 -104
50 -211 71 -265 36 -93 219 -445 231 -445 4 0 22 9 40 20 23 14 32 26 28 38
-22 72 -56 219 -56 241 0 15 21 60 50 104 78 117 100 204 80 307 -36 193 -328
581 -500 668 -36 18 -90 39 -120 47 -74 20 -210 18 -287 -4z m-840 -3052 c26
-41 -35 -126 -182 -256 -102 -89 -284 -216 -289 -202 -7 18 83 184 140 260 32
43 82 99 111 125 90 81 193 115 220 73z m-1281 -286 c81 -38 141 -97 177 -172
24 -51 26 -66 26 -181 -1 -175 -17 -225 -88 -271 -315 -202 -698 -495 -903
-691 l-81 -78 -25 28 c-68 75 -86 164 -49 247 24 55 49 87 62 79 5 -2 4 -16
-1 -30 -29 -74 -2 -124 67 -124 83 0 143 56 143 133 0 118 -171 133 -267 23
-39 -44 -57 -96 -57 -166 0 -70 17 -119 61 -177 40 -53 49 -33 -75 -175 -40
-45 -100 -122 -135 -171 -34 -48 -67 -87 -74 -87 -27 0 -130 110 -161 172 -89
176 -79 449 27 720 76 193 205 381 391 569 132 134 239 216 366 281 159 81
265 108 419 105 100 -2 116 -5 177 -34z m528 -562 c-120 -322 -147 -388 -207
-501 -172 -327 -439 -596 -724 -729 -235 -110 -530 -139 -714 -70 l-55 21 17
30 c33 55 176 240 235 304 l59 63 42 -15 c145 -51 328 -7 509 124 78 56 237
217 298 300 72 98 138 219 178 326 l37 98 175 115 c96 63 184 121 195 129 11
7 23 13 26 13 4 1 -29 -93 -71 -208z m-390 -116 c-63 -167 -197 -372 -329
-504 -196 -197 -410 -297 -562 -263 -94 21 -94 22 1 110 113 105 248 218 400
334 137 104 481 347 492 348 4 0 3 -11 -2 -25z m-2855 -1130 c0 -38 1 -37
-333 -61 -185 -12 -269 -15 -280 -7 -10 5 -18 24 -20 42 -6 62 -11 62 327 59
l306 -3 0 -30z m436 -410 c152 -26 374 -117 465 -190 l28 -23 -187 -7 c-202
-8 -348 2 -497 35 -86 18 -225 69 -268 97 -24 14 -24 15 -4 29 27 18 121 53
174 63 69 14 199 12 289 -4z"></path>
</g>
</svg>