<?xml version="1.0" encoding="UTF-8"?>
<svg xmlns="http://www.w3.org/2000/svg" xmlns:xlink="http://www.w3.org/1999/xlink" viewBox="0 0 24 24" version="1.1" fill="#ff4500" width="24px" height="24px">
<g id="surface1" fill="#ff4500">
<path style=" " d="M 5 3 C 3.898438 3 3 3.898438 3 5 L 3 19 C 3 20.101563 3.898438 21 5 21 L 19 21 C 20.101563 21 21 20.101563 21 19 L 21 5 C 21 3.898438 20.101563 3 19 3 Z M 6.5 7.6875 L 9.40625 7.6875 C 11.90625 7.6875 12.1875 10 12.1875 10.5 C 12.1875 12.5 10.800781 13.1875 9.5 13.1875 L 8.3125 13.1875 L 8.3125 16.1875 L 6.5 16.1875 Z M 8.3125 9.09375 L 8.3125 11.8125 L 9.5 11.8125 C 10.300781 11.8125 10.5 11.199219 10.5 10.5 C 10.5 9.800781 10.199219 9.09375 9.5 9.09375 Z M 15.40625 9.8125 C 16.90625 9.8125 17.6875 10.710938 17.6875 11.8125 L 16 11.8125 C 16 11.3125 15.804688 11 15.40625 11 C 15.105469 11 14.8125 11.195313 14.8125 11.59375 C 14.8125 12.59375 17.6875 12.300781 17.6875 14.5 C 17.6875 16 16.207031 16.3125 15.40625 16.3125 C 13.804688 16.3125 13 15.1875 13 14.1875 L 14.59375 14.1875 C 14.59375 14.988281 15.207031 15.09375 15.40625 15.09375 C 15.804688 15.09375 16.09375 14.898438 16.09375 14.5 C 16.09375 13.601563 13.1875 13.6875 13.1875 11.6875 C 13.1875 10.1875 14.605469 9.8125 15.40625 9.8125 Z " fill="#ff4500"/>
</g>
</svg>
