<?xml version="1.0" encoding="UTF-8"?>
<svg xmlns="http://www.w3.org/2000/svg" xmlns:xlink="http://www.w3.org/1999/xlink" viewBox="0 0 26 26" version="1.1" fill="#ff4500" width="26px" height="26px">
<g id="surface1" fill="#ff4500">
<path style=" " d="M 21.125 0 L 4.875 0 C 2.183594 0 0 2.183594 0 4.875 L 0 21.125 C 0 23.816406 2.183594 26 4.875 26 L 21.125 26 C 23.816406 26 26 23.816406 26 21.125 L 26 4.875 C 26 2.183594 23.816406 0 21.125 0 Z M 14.148438 8.65625 C 14.148438 8.726563 14.089844 8.78125 14.023438 8.78125 L 10.5625 8.78125 L 10.5625 11.441406 L 13.734375 11.441406 C 13.804688 11.441406 13.859375 11.5 13.859375 11.566406 L 13.859375 13.421875 C 13.859375 13.492188 13.804688 13.546875 13.734375 13.546875 L 10.5625 13.546875 L 10.5625 18 C 10.5625 18.070313 10.507813 18.125 10.4375 18.125 L 8.425781 18.125 C 8.355469 18.125 8.300781 18.070313 8.300781 18 L 8.300781 6.800781 C 8.300781 6.730469 8.355469 6.675781 8.425781 6.675781 L 14.023438 6.675781 C 14.09375 6.675781 14.148438 6.730469 14.148438 6.800781 Z M 18.398438 17.941406 C 18.257813 18.035156 18.03125 18.121094 17.699219 18.199219 C 17.382813 18.277344 17.054688 18.316406 16.726563 18.316406 C 16.160156 18.316406 15.730469 18.171875 15.4375 17.878906 C 15.144531 17.585938 15.003906 17.113281 15.003906 16.429688 L 15.003906 6.800781 C 15.003906 6.730469 15.058594 6.675781 15.128906 6.675781 L 17.03125 6.675781 C 17.097656 6.675781 17.15625 6.730469 17.15625 6.800781 L 17.15625 15.40625 C 17.15625 15.761719 17.1875 16.011719 17.257813 16.15625 C 17.308594 16.269531 17.390625 16.324219 17.511719 16.324219 C 17.597656 16.324219 17.6875 16.3125 17.78125 16.292969 C 17.878906 16.273438 17.984375 16.238281 18.101563 16.1875 C 18.140625 16.171875 18.179688 16.175781 18.214844 16.195313 C 18.246094 16.21875 18.269531 16.25 18.273438 16.289063 L 18.449219 17.824219 C 18.457031 17.871094 18.4375 17.917969 18.398438 17.941406 Z " fill="#ff4500"/>
</g>
</svg>
