<?xml version="1.0"?>
<svg xmlns="http://www.w3.org/2000/svg" viewBox="0 0 32 32" fill="#ff4500" width="32px" height="32px">
    <path style="line-height:normal;text-indent:0;text-align:start;text-decoration-line:none;text-decoration-style:solid;text-decoration-color:#000;text-transform:none;block-progression:tb;isolation:auto;mix-blend-mode:normal" d="M 4 4 L 4 5 L 4 28 L 28 28 L 28 4 L 4 4 z M 6 6 L 26 6 L 26 26 L 6 26 L 6 6 z M 10 11 L 10 21 L 12 21 L 12 17 L 13 17 C 14.256622 17 15.14058 16.106694 15.583984 15 L 16 15 L 16 14 C 16 12.35503 14.64497 11 13 11 L 10 11 z M 12 13 L 13 13 C 13.56503 13 14 13.43497 14 14 C 14 14.56503 13.56503 15 13 15 L 12 15 L 12 13 z M 17 13 L 17 17 L 17 18 L 17 21 L 19 21 L 19 17 C 19 15.883334 19.883334 15 21 15 L 22 15 L 22 13 L 21 13 C 20.269312 13 19.59163 13.213648 19 13.560547 L 19 13 L 17 13 z" font-weight="400" font-family="sans-serif" white-space="normal" overflow="visible" fill="#ff4500"/>
</svg>
